<svg width="60" height="60" viewBox="0 0 60 60" fill="none" xmlns="http://www.w3.org/2000/svg">
<path d="M32.1231 30L38.4871 36.364C39.0729 36.9497 39.0729 37.8995 38.4871 38.4853C37.9013 39.0711 36.9516 39.0711 36.3658 38.4853L30.0018 32.1213L23.6379 38.4853C23.0521 39.0711 22.1023 39.0711 21.5165 38.4853C20.9307 37.8995 20.9307 36.9497 21.5165 36.364L27.8805 30L21.5165 23.636C20.9307 23.0503 20.9307 22.1005 21.5165 21.5147C22.1023 20.9289 23.0521 20.9289 23.6379 21.5147L30.0018 27.8787L36.3658 21.5147C36.9516 20.9289 37.9013 20.9289 38.4871 21.5147C39.0729 22.1005 39.0729 23.0503 38.4871 23.636L32.1231 30Z" fill="#98A2B3"/>
</svg>
