<svg width="17" height="20" viewBox="0 0 17 20" fill="none" xmlns="http://www.w3.org/2000/svg">
<path fill-rule="evenodd" clip-rule="evenodd" d="M9.10156 1.89972H6.60156C5.60662 1.89972 4.91454 1.90042 4.37606 1.94442C3.84808 1.98755 3.54751 2.06779 3.32119 2.18311C2.83197 2.43238 2.43422 2.83013 2.18495 3.31935C2.06963 3.54567 1.9894 3.84624 1.94626 4.37422C1.90226 4.9127 1.90156 5.60478 1.90156 6.59972V13.3997C1.90156 14.3947 1.90226 15.0867 1.94626 15.6252C1.9894 16.1532 2.06963 16.4538 2.18495 16.6801C2.43422 17.1693 2.83197 17.5671 3.32119 17.8163C3.54751 17.9317 3.84808 18.0119 4.37606 18.055C4.91454 18.099 5.60662 18.0997 6.60156 18.0997H10.4016C11.3965 18.0997 12.0886 18.099 12.6271 18.055C13.155 18.0119 13.4556 17.9317 13.6819 17.8163C14.1712 17.5671 14.5689 17.1693 14.8182 16.6801C14.9335 16.4538 15.0137 16.1532 15.0569 15.6252C15.1009 15.0867 15.1016 14.3947 15.1016 13.3997V7.89972H13.2016L13.1662 7.89972C12.6363 7.89974 12.1851 7.89975 11.8147 7.86948C11.4255 7.83769 11.0469 7.76805 10.685 7.58364C10.1393 7.30561 9.69568 6.86196 9.41764 6.31629C9.23323 5.95436 9.1636 5.57577 9.1318 5.1866C9.10153 4.81617 9.10155 4.36499 9.10156 3.83512L9.10156 3.79972V1.89972ZM14.3288 6.09972L10.9016 2.67251V3.79972C10.9016 4.37463 10.9023 4.75168 10.9258 5.04003C10.9485 5.31788 10.9879 5.43322 11.0215 5.49911C11.1269 5.70609 11.2952 5.87437 11.5022 5.97983C11.5681 6.0134 11.6834 6.05276 11.9613 6.07546C12.2496 6.09902 12.6267 6.09972 13.2016 6.09972H14.3288ZM10.4405 0.166034C10.161 0.0989383 9.87428 0.0992922 9.57465 0.0996644L9.50745 0.0997216H6.60156H6.56316C5.61566 0.0997124 4.8499 0.0997056 4.22948 0.150396C3.59019 0.202628 3.02637 0.313133 2.504 0.579292C1.67609 1.00113 1.00298 1.67425 0.581134 2.50216C0.314975 3.02453 0.204469 3.58835 0.152237 4.22764C0.101546 4.84806 0.101554 5.61381 0.101563 6.56131V6.59972V13.3997V13.4381C0.101554 14.3856 0.101546 15.1514 0.152237 15.7718C0.204469 16.4111 0.314975 16.9749 0.581134 17.4973C1.00298 18.3252 1.67609 18.9983 2.504 19.4202C3.02637 19.6863 3.59019 19.7968 4.22948 19.849C4.8499 19.8997 5.61565 19.8997 6.56315 19.8997H6.60156H10.4016H10.44C11.3875 19.8997 12.1532 19.8997 12.7736 19.849C13.4129 19.7968 13.9768 19.6863 14.4991 19.4202C15.327 18.9983 16.0001 18.3252 16.422 17.4973C16.6882 16.9749 16.7987 16.4111 16.8509 15.7718C16.9016 15.1514 16.9016 14.3856 16.9016 13.4381V13.3997V7.49383L16.9016 7.42663C16.902 7.12701 16.9023 6.84025 16.8353 6.56077C16.7765 6.31589 16.6795 6.08178 16.5479 5.86704C16.3977 5.62199 16.1947 5.41947 15.9826 5.20787L15.935 5.16038L11.8409 1.06627L11.7934 1.01871C11.5818 0.806579 11.3793 0.603561 11.1342 0.453386C10.9195 0.321797 10.6854 0.224827 10.4405 0.166034Z" fill="#98A2B3"/>
</svg>
