<svg width="16" height="20" viewBox="0 0 16 20" fill="none" xmlns="http://www.w3.org/2000/svg">
<path fill-rule="evenodd" clip-rule="evenodd" d="M7.99933 11C9.93233 11 11.4993 9.433 11.4993 7.5C11.4993 5.567 9.93233 4 7.99933 4C6.06633 4 4.49933 5.567 4.49933 7.5C4.49933 9.433 6.06633 11 7.99933 11ZM7.99933 9.19999C8.93821 9.19999 9.69933 8.43887 9.69933 7.49999C9.69933 6.5611 8.93821 5.79999 7.99933 5.79999C7.06044 5.79999 6.29933 6.5611 6.29933 7.49999C6.29933 8.43887 7.06044 9.19999 7.99933 9.19999Z" fill="#FFBA00"/>
<path fill-rule="evenodd" clip-rule="evenodd" d="M0.242188 7.76987C0.242188 3.48026 3.71361 0 7.99933 0C12.2851 0 15.7565 3.48026 15.7565 7.76987C15.7565 10.903 13.7824 14.6225 10.1917 18.8679C10.0886 18.9898 9.97554 19.1029 9.85363 19.206C8.64279 20.2301 6.83101 20.0787 5.80691 18.8679L5.23983 18.1974L5.24559 18.1923C2.01105 14.2269 0.242188 10.7357 0.242188 7.76987ZM7.18434 17.7091C7.56701 18.1576 8.24064 18.2128 8.69123 17.8317C8.73672 17.7932 8.77892 17.751 8.8174 17.7055C12.3626 13.5139 13.9565 10.2221 13.9565 7.76987C13.9565 4.47123 11.2878 1.8 7.99933 1.8C4.71086 1.8 2.04219 4.47123 2.04219 7.76987C2.04219 10.2221 3.63606 13.5139 7.18126 17.7055L7.18434 17.7091Z" fill="#FFBA00"/>
</svg>
