<svg width="20" height="16" viewBox="0 0 20 16" fill="none" xmlns="http://www.w3.org/2000/svg">
<path fill-rule="evenodd" clip-rule="evenodd" d="M5.80156 0.0996097H5.76386H5.76383C4.95579 0.0995998 4.29495 0.0995917 3.75788 0.143472C3.20197 0.188892 2.69989 0.285774 2.231 0.524685C1.49717 0.898591 0.900544 1.49522 0.526638 2.22905C0.287727 2.69794 0.190845 3.20001 0.145425 3.75593C0.101544 4.293 0.101553 4.95385 0.101563 5.76189V5.76191V5.79961V10.1996V10.2373V10.2373C0.101553 11.0454 0.101544 11.7062 0.145425 12.2433C0.190845 12.7992 0.287727 13.3013 0.526638 13.7702C0.900544 14.504 1.49717 15.1006 2.231 15.4745C2.69989 15.7134 3.20197 15.8103 3.75788 15.8557C4.29496 15.8996 4.95581 15.8996 5.76386 15.8996H5.80156H14.2016H14.2393C15.0473 15.8996 15.7082 15.8996 16.2452 15.8557C16.8012 15.8103 17.3032 15.7134 17.7721 15.4745C18.506 15.1006 19.1026 14.504 19.4765 13.7702C19.7154 13.3013 19.8123 12.7992 19.8577 12.2433C19.9016 11.7062 19.9016 11.0454 19.9016 10.2373V10.1996V5.79961V5.76191C19.9016 4.95385 19.9016 4.293 19.8577 3.75593C19.8123 3.20001 19.7154 2.69794 19.4765 2.22905C19.1026 1.49522 18.506 0.898591 17.7721 0.524685C17.3032 0.285774 16.8012 0.188892 16.2452 0.143472C15.7082 0.0995917 15.0473 0.0995998 14.2393 0.0996097H14.2393H14.2016H5.80156ZM3.3822 2.01178C3.51777 1.98042 3.68635 1.95531 3.90446 1.93749C4.35956 1.90031 4.94663 1.89961 5.80156 1.89961H14.2016C15.0565 1.89961 15.6436 1.90031 16.0987 1.93749C16.3168 1.95531 16.4854 1.98042 16.6209 2.01178L12.6119 5.5197C12.0341 6.02528 11.6384 6.37064 11.309 6.61698C10.9886 6.85659 10.7848 6.96015 10.6084 7.0123C10.2123 7.12944 9.79079 7.12944 9.39469 7.0123C9.21835 6.96015 9.01453 6.85659 8.69411 6.61698C8.36469 6.37064 7.96906 6.02528 7.39125 5.5197L3.3822 2.01178ZM2.05196 3.2396C2.00243 3.39529 1.96401 3.60184 1.93945 3.90251C1.90226 4.35761 1.90156 4.94468 1.90156 5.79961V10.1996C1.90156 11.0545 1.90226 11.6416 1.93945 12.0967C1.97577 12.5413 2.04238 12.7801 2.13045 12.953C2.33178 13.3481 2.65304 13.6694 3.04818 13.8707C3.22103 13.9588 3.45986 14.0254 3.90446 14.0617C4.35956 14.0989 4.94663 14.0996 5.80156 14.0996H14.2016C15.0565 14.0996 15.6436 14.0989 16.0987 14.0617C16.5433 14.0254 16.7821 13.9588 16.9549 13.8707C17.3501 13.6694 17.6713 13.3481 17.8727 12.953C17.9607 12.7801 18.0274 12.5413 18.0637 12.0967C18.1009 11.6416 18.1016 11.0545 18.1016 10.1996V5.79961C18.1016 4.94468 18.1009 4.35761 18.0637 3.9025C18.0391 3.60184 18.0007 3.39529 17.9512 3.2396L13.7972 6.87433L13.771 6.89727C13.2258 7.37428 12.7784 7.76581 12.387 8.0585C11.9803 8.36259 11.5811 8.60171 11.1189 8.7384C10.3896 8.95407 9.61351 8.95407 8.88423 8.7384C8.42199 8.60171 8.02279 8.36259 7.61614 8.0585C7.22476 7.76582 6.77733 7.37431 6.23221 6.89732L6.20594 6.87434L2.05196 3.2396Z" fill="#98A2B3"/>
</svg>
