<svg width="14" height="20" viewBox="0 0 14 20" fill="none" xmlns="http://www.w3.org/2000/svg">
<path fill-rule="evenodd" clip-rule="evenodd" d="M6.18156 1.89961H7.82155C8.91536 1.89961 9.62745 1.90101 10.1708 1.9454C10.6932 1.98808 10.8991 2.06135 11.0095 2.1176C11.3859 2.30934 11.6918 2.6153 11.8836 2.99163C11.9398 3.10202 12.0131 3.30801 12.0558 3.83035C12.1002 4.37371 12.1016 5.08581 12.1016 6.17961V13.8196C12.1016 14.9134 12.1002 15.6255 12.0558 16.1689C12.0131 16.6912 11.9398 16.8972 11.8836 17.0076C11.6918 17.3839 11.3859 17.6899 11.0095 17.8816C10.8991 17.9379 10.6932 18.0112 10.1708 18.0538C9.62745 18.0982 8.91536 18.0996 7.82156 18.0996H6.18156C5.08776 18.0996 4.37567 18.0982 3.83231 18.0538C3.30996 18.0112 3.10397 17.9379 2.99358 17.8816C2.61726 17.6899 2.3113 17.3839 2.11955 17.0076C2.0633 16.8972 1.99003 16.6912 1.94736 16.1689C1.90296 15.6255 1.90156 14.9134 1.90156 13.8196V6.17961C1.90156 5.08581 1.90296 4.37371 1.94736 3.83035C1.99003 3.30801 2.0633 3.10202 2.11955 2.99163C2.3113 2.6153 2.61726 2.30934 2.99358 2.1176C3.10397 2.06135 3.30996 1.98808 3.83231 1.9454C4.37567 1.90101 5.08776 1.89961 6.18156 1.89961ZM0.101562 6.17961C0.101562 4.05141 0.101562 2.98731 0.515738 2.17445C0.880057 1.45943 1.46138 0.878103 2.1764 0.513784C2.98926 0.0996092 4.05336 0.0996094 6.18156 0.0996094H7.82155C9.94975 0.0996094 11.0139 0.0996092 11.8267 0.513784C12.5417 0.878103 13.1231 1.45943 13.4874 2.17445C13.9016 2.98731 13.9016 4.05141 13.9016 6.17961V13.8196C13.9016 15.9478 13.9016 17.0119 13.4874 17.8248C13.1231 18.5398 12.5417 19.1211 11.8267 19.4855C11.0139 19.8996 9.94976 19.8996 7.82156 19.8996H6.18156C4.05336 19.8996 2.98926 19.8996 2.1764 19.4855C1.46138 19.1211 0.880057 18.5398 0.515738 17.8248C0.101562 17.0119 0.101562 15.9478 0.101562 13.8196V6.17961ZM6.25156 14.1996C5.7545 14.1996 5.35156 14.6026 5.35156 15.0996C5.35156 15.5967 5.7545 15.9996 6.25156 15.9996H7.75156C8.24861 15.9996 8.65156 15.5967 8.65156 15.0996C8.65156 14.6026 8.24861 14.1996 7.75156 14.1996H6.25156Z" fill="#80A948"/>
</svg>
