<svg xmlns="http://www.w3.org/2000/svg" viewBox="0 0 500 500"><g id="freepik--Character--inject-4"><g id="freepik--character--inject-4"><g id="freepik--Bottom--inject-4"><path d="M189.93,332.78c-4.13-.6-9.33-1-14.21,1.63-7.94,4.25-15.48,10.36-17.29,12.58s-3.72.83-5.22-3.81A14.13,14.13,0,0,1,157,328.72c4.16-3.78,8.21-6.62,9.88-9.23s8.43-3,12.43-2.1c0,0,1.4-.06,2.77-.06,6.18,0,20.43-2.73,20.43-2.73l2.67,18.33S194.06,333.39,189.93,332.78Z" style="fill:#c8856a"></path><path d="M159.74,363.72c-1.64.91-6.09,1.45-8.65-.09-5.34-3.21-7-13.46-5.72-19.25,1.56-7,5.21-10.75,6.27-15s.38-10.16,1.91-13.89a10.89,10.89,0,0,1,6.71-6.08,6.59,6.59,0,0,1,5.75.74l1.62,1.05Z" style="fill:#263238"></path><path d="M148,345.88c.86-7.77,8.32-13.36,7.8-20.9s3.36-17.67,13.2-13.18a36.85,36.85,0,0,1,5.3,2.91,6.87,6.87,0,0,0,2.35,1.26,11,11,0,0,0,3.18.22,3.58,3.58,0,0,1,1.46.05,1,1,0,0,1,.78,1.09l-2.68.05a1.22,1.22,0,0,0-.63.14c-.49.35-.14,1.11-.15,1.71,0,.86-.85,1.44-1.59,1.87l-2.91,1.69a12.83,12.83,0,0,0-2.68,1.64c-.26.27-.69,1.1-.18,1.36s2.16-.53,2.69-.68a2,2,0,0,1,1-.09c.56.15.84.76,1.07,1.29a10.42,10.42,0,0,0,2.81,4.14,12.34,12.34,0,0,0,3.47,1.76.53.53,0,0,1,.24.14.38.38,0,0,1,.06.37,1.28,1.28,0,0,1-.79.7,63.32,63.32,0,0,1-6.07,2.41c-1.66.57-3.95,1.43-5.07,2.87a13.15,13.15,0,0,0-1.82,3.25,33.66,33.66,0,0,0-1.49,5.89c-.59,3-1.2,6-1.9,8.94a17.08,17.08,0,0,1-1.48,4.39c-2.2,4-7.33,4.31-10.79,1.7a11.55,11.55,0,0,1-3.91-4.79C147.56,354.12,147.61,349.61,148,345.88Z" style="fill:#455a64"></path><path d="M167.6,349a.83.83,0,0,1-.21.16c-.31.15-.49,0-.67-.23a12.86,12.86,0,0,0-1.46-1.4,16.45,16.45,0,0,0-3.08-2,18.44,18.44,0,0,0-4.71-1.7l-.51-.09a.77.77,0,0,1-.65-.86.76.76,0,0,1,.86-.65,15.93,15.93,0,0,1,3.27.87,18.59,18.59,0,0,1,6.24,3.68c.48.43,1.17,1,1.14,1.69A.85.85,0,0,1,167.6,349Z" style="fill:#fafafa"></path><path d="M168.56,344.91c-.44.43-.92-.3-1.2-.61a12.87,12.87,0,0,0-1.43-1.33,16,16,0,0,0-3-1.88,17.46,17.46,0,0,0-4.19-1.44l-.18,0a.77.77,0,0,1-.64-.87.75.75,0,0,1,.87-.64,16.14,16.14,0,0,1,3.26.92,17.25,17.25,0,0,1,6,3.77,2,2,0,0,1,.79,1.35,1.06,1.06,0,0,1-.17.65A.52.52,0,0,1,168.56,344.91Z" style="fill:#fafafa"></path><path d="M169.83,341a.89.89,0,0,1-.31.15c-.33.06-.47-.29-.65-.51a8.42,8.42,0,0,0-.62-.72,13.22,13.22,0,0,0-1.34-1.25,16.89,16.89,0,0,0-2.83-1.83,17.8,17.8,0,0,0-3.73-1.45l-.06,0a.76.76,0,1,1,.34-1.49,17.31,17.31,0,0,1,3.28,1.17,17,17,0,0,1,5.74,4.13,2.41,2.41,0,0,1,.6.91.76.76,0,0,1,0,.47.86.86,0,0,1-.24.3A1.07,1.07,0,0,1,169.83,341Z" style="fill:#fafafa"></path><path d="M165,328.64a.93.93,0,0,1,.33-.07c.34,0,.39.4.5.66a8.29,8.29,0,0,0,.43.84,13.14,13.14,0,0,0,1,1.55,16.8,16.8,0,0,0,2.3,2.47,17.29,17.29,0,0,0,3.24,2.33l.06,0a.76.76,0,0,1-.69,1.36,18.85,18.85,0,0,1-7.44-7.37,2.3,2.3,0,0,1-.35-1,.65.65,0,0,1,.13-.45,1.17,1.17,0,0,1,.3-.24Z" style="fill:#fafafa"></path><path d="M147.9,347.29a22.85,22.85,0,0,0,1.36,10.79,11.55,11.55,0,0,0,3.91,4.79c3.46,2.61,8.59,2.31,10.79-1.7a17.08,17.08,0,0,0,1.48-4.39c.3-1.27.58-2.55.85-3.83C160.92,345.35,150.32,346.32,147.9,347.29Z" style="fill:#fafafa"></path><path d="M288.35,374.34c-1.53,3.56-3.59,8.13-2.41,13.14,1.92,8.13,5.59,16.36,7.15,18.52s-.15,3.53-4.67,3.77a13.15,13.15,0,0,1-12.06-6.88c-2.39-4.64-4-8.95-5.91-11.08s-1.45-5.44.28-8.82,3.45-22.12,3.45-22.12l18.42,3.53S289.88,370.78,288.35,374.34Z" style="fill:#c8856a"></path><path d="M267.71,390.94a8.13,8.13,0,0,0-.56,2.78c.07,1.22,1.89,3.7,3.14,5a10.58,10.58,0,0,1,2.89,6.92,18.74,18.74,0,0,0,5.14,11.17,26.9,26.9,0,0,0,14.33,7c6.65,1.17,8.51-2.31,8.51-2.31s1.6-3.34.25-4.46S267.71,390.94,267.71,390.94Z" style="fill:#263238"></path><path d="M272,375.21a35.62,35.62,0,0,1-3.05,9.06c-.84,1.75-2,4.56-1.25,6.67.9,3.22,4.53,5.5,5.76,9.9s2.6,12,10.17,16.67,14.71,4.32,17.08,2.55,1.79-4.46-2.4-9.21c-4.45-5.05-8.47-16.68-8.47-16.68-1-3.37-2-6.72-1.83-10.76l2.9-4.24c0-1.39-12-4.93-13.58-3.55l-1,5.85-.45-6Z" style="fill:#455a64"></path><path d="M279.07,413.62a11,11,0,0,1,9.31-6.64c7.31-.88,10.3,2.53,11.69,4.58,1.65,2.44,3.61,7,.76,8.72-3.08,1.87-6.91,1.89-13.21-.35S279.07,413.62,279.07,413.62Z" style="fill:#fafafa"></path><path d="M277.67,391.43a.77.77,0,0,0,.66-.09c1.06-.72,6.88-2.71,10.76.09.41-.42.24-1.07-.46-1.93-4.39-2.08-9.91-.22-11.18.64a.7.7,0,0,0-.17,1A.83.83,0,0,0,277.67,391.43Z" style="fill:#fafafa"></path><path d="M290.37,395.6a2.24,2.24,0,0,0-.67-2c-4.28-1.68-9.41.06-10.63.89a.69.69,0,0,0-.16,1,.79.79,0,0,0,1,.19C281,395,286.5,393.15,290.37,395.6Z" style="fill:#fafafa"></path><path d="M288.3,387.74a1.33,1.33,0,0,0-.22-2c-4.52-3-10.87-.9-12.25,0a.69.69,0,0,0-.17,1,.79.79,0,0,0,.38.28.76.76,0,0,0,.67-.09C277.85,386.18,284.48,383.94,288.3,387.74Z" style="fill:#fafafa"></path><path d="M294.58,405.11a4.19,4.19,0,0,0-1.26-2.53c-4.36-1.94-9.75-.13-11,.72a.7.7,0,0,0-.16,1,.81.81,0,0,0,.38.28.76.76,0,0,0,.67-.09C284.31,403.74,290.73,401.57,294.58,405.11Z" style="fill:#fafafa"></path><path d="M280.91,400.2a.74.74,0,0,0,.66-.09c1.05-.7,6.75-2.65,10.63,0a2.55,2.55,0,0,0-.88-2.09c-4.29-1.68-9.41.06-10.63.89a.69.69,0,0,0-.16,1A.75.75,0,0,0,280.91,400.2Z" style="fill:#fafafa"></path><path d="M195.27,315.7l34.95-6.4s-9.06-39.87-12.86-59.06c-3.07-15.48-4.69-24.22,4.84-38l43.92,7.53,14.48,2.47c1.56,7.89,1.73,8.37,4.28,14,10.54,21.12,20.56,40.77,28.41,60.94,3,7.77,2.46,10.1-2,22.91-6.19,18-11.29,27.18-19.37,45.72-4.46.46-14.74-.85-17.84-4.31,2.14-22.45,3.08-42.32,10.05-55.27-10.71-13.63-23.32-30.08-23.32-30.08.28,10.37,1.62,30.37.22,45.11-.88,9.25-6.77,15.35-16.86,15.32-14.05,0-49.35-2.9-49.35-2.9C192,331.56,192.13,320,195.27,315.7Z" style="fill:#455a64"></path><path d="M260.85,276.19c-.7-11-.8-20.93-.8-20.93s11.48-3.85,15-8.82c-.91,7.2-9.16,13.17-9.16,13.17l.07,17.82,10.85,19.4Z" style="opacity:0.2"></path><path d="M230.22,309.3s.89,7.71,4.63,12.38a19.12,19.12,0,0,1-5.81-6.26c-2.22-4-14.58-.89-24-1.49Z" style="opacity:0.2"></path><path d="M284.17,306.27c-2.95,5.47-4.81,12.2-6.15,19.83a86,86,0,0,1,3.87-8.28A42.19,42.19,0,0,1,287,310,36.91,36.91,0,0,0,284.17,306.27Z" style="opacity:0.2"></path></g><g id="freepik--Top--inject-4"><path d="M348.23,150.34c1.23-1.9,1.51-3.32,3.23-4.14a19.41,19.41,0,0,0,5.41-3.94c2.39-2.31,4.27-4.29,4.27-4.29s2.1-2.26,1.78-3.94a2,2,0,0,0-2-1.84,2.7,2.7,0,0,0,1.22-3.14,2.67,2.67,0,0,0-3-1.61s2.39-1.74,1.1-4a2.52,2.52,0,0,0-3.32-1.24,3,3,0,0,0,.35-4.23c-.94-1.34-2.73-1.76-7,1.29,0,0-2.4-.89-3.91-.26-.95.39-4.9,3.81-7.36,6.43-1.19,1.27-1.83,4.46-1.35,7.52.43,2.78.1,5.49-2.59,10.67Z" style="fill:#c8856a"></path><path d="M345.47,125.07a22,22,0,0,1,2.6,6.35,23.73,23.73,0,0,1,.18,8.69,14.85,14.85,0,0,0,1.13-7.61,2.07,2.07,0,0,0,1.15.3c-.92,1.28-1.57,2.63,0,3.8a2.52,2.52,0,0,0,2.48.48,2.15,2.15,0,0,0-.26,2.39,2,2,0,0,0,2.41,1.05,3.71,3.71,0,0,0,.53-.26.24.24,0,0,0,.08-.06s0,0,0-.06l-.3,0a2.27,2.27,0,0,1-2-.61,1.81,1.81,0,0,1,0-1.59,7.83,7.83,0,0,1,1.53-2.06.19.19,0,0,0,.05-.1c0-.09-.13-.1-.22-.08-.5.11-1,.35-1.45.49a2.05,2.05,0,0,1-1.91-.34c-1.13-.84-.4-2.43.29-3.33.23-.3.48-.58.69-.88,0-.05.06-.12,0-.14l0,0a2,2,0,0,0-.71.19,3.34,3.34,0,0,1-.77.19,1.71,1.71,0,0,1-1-.12c-.67-.34-.53-1.07-.4-1.69a5.85,5.85,0,0,1,1.4-2.7l.05-.07.2.18c2,1.88,4.31.27,4-.79s-.92-5.49-1.52-5.81a27.7,27.7,0,0,0-3.45-1.61l3.35,1.9s1.27,5.75.77,6.1a2,2,0,0,1-2.54-.06,16.86,16.86,0,0,1-2.79-2.94C348.33,125.1,345.47,125.07,345.47,125.07Zm1.91.18a2.21,2.21,0,0,0,1.32-.24s.42.5,1.95,2a9.67,9.67,0,0,0-1.21.79,2.29,2.29,0,0,1-.74.31.83.83,0,0,1-.22,0A19.35,19.35,0,0,0,347.38,125.25Z" style="fill:#af6152"></path><path d="M335,143.65s15.62,1.81,13.19,6.69-13.58,32.1-16.53,34.78l-13.15-14.55Z" style="fill:#c8856a"></path><path d="M267.6,144.54c6.85,1.45,7.71,1.62,11.9,4s8.73,5.6,10.95,6.9c8,4.66,27.42,14.73,27.42,14.73l12.22-18.45c2.22,4.35,8.08,8,13.28,10.12,0,0-5.75,15.36-13.36,27.42-2.4,3.81-5,4.34-10,3.34-4.42-.88-9-1.72-21.69-6.68-8.6-3.37-15-6.2-27.93-9.74C268.68,175.72,265.65,147.48,267.6,144.54Z" style="fill:#37474f"></path><g id="freepik--Head--inject-4"><path d="M241.33,136.09c-.48-3.16-6-5.81-11-10.21-6.87-6.12-11.43-17.73-2.94-27.4.75-14.15,16.73-19.08,30.32-17.11,8.16,1.19,16,5.83,19.58,13.34,2.56,5.42,3.2,12.42-.15,18,.18-1.78.13-4.43-.64-5.92a9.94,9.94,0,0,1-.95,2.73,3.41,3.41,0,0,1-2.21,1.74c-1,.18-1.61-.31-2.49-.5s-.88-.07-1.55.51l-2.41,2.14-5.66,5L249.33,129C248.88,129.41,241.36,136.24,241.33,136.09Z" style="fill:#263238"></path><path d="M237.73,128.09a4.89,4.89,0,0,1-4.32-1.36,8.54,8.54,0,0,1-2.59-9.16,3.72,3.72,0,0,1,5.48-2.09c1.74,1.13,2.32,3.25,3.81,2.87,1.26-.32.54-2,.54-3.06,7.38-3.43,6.78-10.42,6.15-15.62,1.52-3.44,6.72-6.18,12.65-2.76,1-2,1.42-3.06,4-3.75,3.65-1,6.39,1.72,7.72,4.16,2.35,4.32,2.86,9.72,3.32,14.52.89,9.18.94,16.06-2.58,20.26-2.16,2.58-6.52,3.16-10.95,3.33l-1.07,7.15s2.81,6.55-.24,10.21a14.83,14.83,0,0,1-11.17-1.39c-8.47-4.77-8.41-12-8.41-12l.54-13.86A3.55,3.55,0,0,1,237.73,128.09Z" style="fill:#c8856a"></path><path d="M256.68,110.8c.5,1.06-.86.44-1.92,1s-1.42,2-1.92,1a2.22,2.22,0,0,1,1-2.9A2.08,2.08,0,0,1,256.68,110.8Z" style="fill:#263238"></path><path d="M270.48,109.65c.08,1.17-1,.08-2.14.19s-2.07,1.37-2.15.2a2.22,2.22,0,0,1,2-2.32A2.07,2.07,0,0,1,270.48,109.65Z" style="fill:#263238"></path><path d="M271.72,104.29l-4.65-2.14a2.46,2.46,0,0,1,3.32-1.31A2.7,2.7,0,0,1,271.72,104.29Z" style="fill:#263238"></path><path d="M252.57,104.21,249.13,108a2.46,2.46,0,0,1-.25-3.56A2.7,2.7,0,0,1,252.57,104.21Z" style="fill:#263238"></path><path d="M256.07,121.2l8,2.68a4.13,4.13,0,0,1-5.61,2.88C256.26,125.93,255.47,123.66,256.07,121.2Z" style="fill:#af6152"></path><path d="M258.44,126.76a4.51,4.51,0,0,0,1.85.29,4.05,4.05,0,0,0-4.11-3.48l-.23,0A3.91,3.91,0,0,0,258.44,126.76Z" style="fill:#ffa8a7"></path><polygon points="261.12 108 263.34 119.93 269.5 116.96 261.12 108" style="fill:#af6152"></polygon><path d="M261,135.43c-4.69,0-14.19-.84-17.88-6.44,0,0,1.8,4.8,5.06,6.6s12.43,2.5,12.43,2.5Z" style="fill:#af6152"></path></g><path d="M273.18,146c3.47.86,1.31,6.37,8,16.15l-20.83-17.7-.49-1.84S268.36,144.77,273.18,146Z" style="fill:#37474f"></path><path d="M275.1,155.91c-8.85-7.36-14.66-11.37-14.66-11.37,1.15,4.67.06,7.42-2.26,8.15s-10.47-1-15.22-5.34l-25.57,18.37c1.53,4.51,4.58,12.36,5.42,17.17s2.58,14.18,2,19-7.88,14.5-10.26,27.59c0,0,15,13,42.57,11.56,22-1.12,25.71-10.35,25.71-10.35s-2.56-10.71-4.41-18.47c1.61-11.85,3.13-20.79,3.13-20.79s8-9,5.36-18.78C284.62,163.88,278.75,158.94,275.1,155.91Z" style="fill:#69FF9E"></path><path d="M232.31,138.5c5.08,2.75,7.77.89,7.77.89s-.36,6.88,4.38,9.88c0,0-10,22.33-17.82,27.9S232.31,138.5,232.31,138.5Z" style="fill:#37474f"></path><path d="M240.08,139.39c.38,3,3.47,7.07,6.2,8.94,5.79,4,10.24,4.7,12.81,3.15s1.14-6.53.81-8.9l1.39.36c1.13,2.47,3,9.58-1,11.36-5.54,2.46-15.52-1.88-19.37-6.77s-4-7.55-4-7.55a8,8,0,0,0,1.67-.06A9.45,9.45,0,0,0,240.08,139.39Z" style="fill:#263238"></path><path d="M173.62,79.37c-.68-2.17-.57-3.61-2-4.85a19.51,19.51,0,0,1-4.17-5.24c-1.69-2.85-3-5.26-3-5.26s-1.42-2.74-.66-4.27a2,2,0,0,1,2.44-1.24,2.72,2.72,0,0,1-.35-3.36,2.68,2.68,0,0,1,3.3-.76s-1.85-2.3,0-4.11A2.53,2.53,0,0,1,172.7,50a3,3,0,0,1,.78-4.18c1.26-1,3.1-1,6.43,3.11,0,0,2.55-.21,3.83.79.82.63,3.72,5,5.4,8.15.81,1.54.58,4.78-.69,7.61-1.15,2.56-1.56,5.26-.33,11Z" style="fill:#c8856a"></path><path d="M179.74,54a16.61,16.61,0,0,1-3.46,2.09,2.06,2.06,0,0,1-2.47-.61c-.39-.48,2.36-5.68,2.36-5.68l3.74-1a27.07,27.07,0,0,0-3.75.64c-.67.15-2.44,4.25-3,5.2s1.24,3.11,3.66,1.83l.24-.13,0,.09a5.78,5.78,0,0,1,.63,3c0,.63-.09,1.38-.84,1.52a1.63,1.63,0,0,1-1-.15,2.84,2.84,0,0,1-.7-.39,1.83,1.83,0,0,0-.62-.36h-.05s0,.09,0,.14c.13.35.29.69.44,1,.43,1,.71,2.78-.61,3.29a2.1,2.1,0,0,1-1.93-.17c-.43-.27-.81-.63-1.27-.87-.08,0-.21-.06-.23,0s0,.07,0,.1a7.61,7.61,0,0,1,.93,2.39,1.85,1.85,0,0,1-.39,1.55,2.27,2.27,0,0,1-2.09.05l-.28-.11s0,0,0,0,0,.06.06.09a4.19,4.19,0,0,0,.45.39,2,2,0,0,0,2.59-.38,2.17,2.17,0,0,0,.4-2.37,2.48,2.48,0,0,0,2.51.19c1.85-.7,1.57-2.18,1-3.65a2.15,2.15,0,0,0,1.18,0,15,15,0,0,0-.93,7.64,23.92,23.92,0,0,1,2.48-8.34,21.76,21.76,0,0,1,4.2-5.42S180.22,55,179.74,54Zm-.45,3.79a.55.55,0,0,1-.22-.06,2.28,2.28,0,0,1-.62-.5,12.52,12.52,0,0,0-1-1.08c1.85-1,2.39-1.37,2.39-1.37a2.17,2.17,0,0,0,1.21.58A19.52,19.52,0,0,0,179.29,57.83Z" style="fill:#af6152"></path><path d="M188.12,76.41s-15.54-2.4-14.5,3,4.86,39.43,7,42.8l17.25-11Z" style="fill:#c8856a"></path><path d="M232.31,138.5a93.08,93.08,0,0,0-10.74-6.35c-4.48-2.36-21.31-14.54-21.31-14.54L191.65,89c-4.56,3.46-9.45,6.9-16,7.51,0,0,3.1,21,4.44,28,.83,4.43,1.67,5.46,4.37,8.37,4.79,5.17,13.39,13.94,20.43,21.37,6.35,6.7,12.29,13.47,15.3,19.3.81,1.56,2.69,5,5,4.43,3.51-.89,7.22-10.33,8.91-15.79C236.84,153.24,232.4,142,232.31,138.5Z" style="fill:#37474f"></path></g><path d="M138.43,349.64c-1.39,2.79-1,6.37-.05,9.24a17,17,0,0,0,2.13,4.13,11.74,11.74,0,0,0,1.66,1.86,4.59,4.59,0,0,0,1.85,1.2c.39.09.42-.54.26-.76-1-1.32-2.13-2.47-3-3.86a14.45,14.45,0,0,1-1.52-3.26,20.18,20.18,0,0,1-.65-8.11c0-.34-.41-1-.66-.44Z" style="fill:#69FF9E"></path><path d="M134.58,353.68c-1.38,1.66-1.36,4.1-.94,6.11a9.83,9.83,0,0,0,1,2.83,8.53,8.53,0,0,0,.94,1.37,2.71,2.71,0,0,0,1.46,1.06c.28.05.31-.48.24-.63-.39-.85-1-1.57-1.45-2.4a9.19,9.19,0,0,1-.82-2,13.35,13.35,0,0,1,0-5.8c0-.23-.23-.85-.5-.51Z" style="fill:#69FF9E"></path><path d="M173.26,124.33c-.88,3.12.15,6.67,1.72,9.41a16.69,16.69,0,0,0,2.87,3.66c.94.9,2.32,2.06,3.68,2.13.4,0,.29-.66.13-.83-1-1-2.21-1.83-3.22-2.84a14,14,0,0,1-2.28-3,19,19,0,0,1-2.2-8.33c0-.44-.56-.71-.7-.19Z" style="fill:#69FF9E"></path><path d="M170.14,128.94c-1,1.84-.64,4.23.11,6.11a10.26,10.26,0,0,0,1.64,2.85A8.77,8.77,0,0,0,173,139a2.32,2.32,0,0,0,1.42.66c.31,0,.33-.52.19-.72-.58-.84-1.4-1.5-2-2.32a9,9,0,0,1-1.23-2.18,14.67,14.67,0,0,1-.69-5.23c0-.29-.36-.68-.56-.31Z" style="fill:#69FF9E"></path><path d="M366.43,120.79a13.33,13.33,0,0,0-4.61-8.41,16.5,16.5,0,0,0-3.61-2.47c-1.19-.59-2.87-1.35-4.21-.9-.27.09-.27.67-.05.81,1.2.74,2.63,1.09,3.89,1.72a14.24,14.24,0,0,1,3.38,2.33,18,18,0,0,1,4.52,7.16c.22.58.73.3.69-.24Z" style="fill:#69FF9E"></path><path d="M368,115.48a5.22,5.22,0,0,0-.13-2.08,7.59,7.59,0,0,0-.49-1.41,10.39,10.39,0,0,0-1.57-2.46,9.64,9.64,0,0,0-2.21-2,8.43,8.43,0,0,0-1.39-.74,2,2,0,0,0-1.53-.14.52.52,0,0,0-.06.77c.77.66,1.77,1,2.6,1.58a9.7,9.7,0,0,1,2,1.77,12.53,12.53,0,0,1,2.2,4.72c.13.43.56.41.62,0Z" style="fill:#69FF9E"></path><path d="M323.08,316.78c2.22-1.89,3.28-5.16,3.51-8,.26-3.1-.24-7.12-2.63-9.35-.29-.28-.46.31-.41.51.37,1.53.91,3,1.2,4.58a14.6,14.6,0,0,1,.18,3.79,16.72,16.72,0,0,1-.78,4,39.36,39.36,0,0,1-1.61,3.7c-.16.33.09,1.17.54.79Z" style="fill:#69FF9E"></path><path d="M328.18,314.51c1.85-1,2.77-3.18,3.15-5.15a9.51,9.51,0,0,0,.12-3,5.32,5.32,0,0,0-1.39-3.3c-.25-.21-.4.17-.41.37a26.59,26.59,0,0,0,.38,3.17,9.6,9.6,0,0,1-.19,2.62,17.17,17.17,0,0,1-2,4.52c-.11.21,0,1,.37.78Z" style="fill:#69FF9E"></path></g></g></svg>
